<svg xmlns="http://www.w3.org/2000/svg" xmlns:xlink="http://www.w3.org/1999/xlink" version="1.1" x="0px" y="0px" viewBox="0 0 100 125" enable-background="new 0 0 100 100" xml:space="preserve"><path d="M72.609,71.364c-23.827,0-43.837-16.798-43.208-41.789c0.202-8.202,2.329-15.848,6.306-22.377  C18.141,13.709,5.595,30.568,5.595,50.402c0,25.471,20.716,44.765,46.185,44.765c19.835,0,36.71-13.872,42.801-31.974  C87.982,68.776,80.815,71.364,72.609,71.364"/><path d="M80.71,14.21v0.183c-4.996,0-9.044,4.048-9.044,9.044h-0.185c0-4.996-4.046-9.044-9.042-9.044V14.21  c4.996,0,9.042-4.049,9.042-9.043h0.185C71.666,10.161,75.714,14.21,80.71,14.21"/><path d="M68.529,44.702v0.102c-2.775,0-5.025,2.249-5.025,5.025h-0.099c0-2.776-2.253-5.025-5.026-5.025v-0.102  c2.773,0,5.026-2.249,5.026-5.023h0.099C63.504,42.453,65.754,44.702,68.529,44.702"/><path d="M86.801,34.552v0.102c-2.775,0-5.026,2.249-5.026,5.025h-0.099c0-2.776-2.252-5.025-5.025-5.025v-0.102  c2.773,0,5.025-2.249,5.025-5.023h0.099C81.774,32.303,84.025,34.552,86.801,34.552"/><text x="0" y="115" fill="#000000" font-size="5px" font-weight="bold" font-family="'Helvetica Neue', Helvetica, Arial-Unicode, Arial, Sans-serif">Created by Vicons Design</text><text x="0" y="120" fill="#000000" font-size="5px" font-weight="bold" font-family="'Helvetica Neue', Helvetica, Arial-Unicode, Arial, Sans-serif">from the Noun Project</text></svg>