<svg xmlns="http://www.w3.org/2000/svg" xmlns:xlink="http://www.w3.org/1999/xlink" version="1.1" x="0px" y="0px" viewBox="0 0 48 60" enable-background="new 0 0 48 48" xml:space="preserve"><g><path d="M24,46.9L24,46.9c-0.4,0-0.7-0.2-0.8-0.5L22.6,45.3c-0.3-0.6-0.7-1.2-1-1.8c-3.8-6.8-7.4-13.5-10.2-20.7   c-0.9-2.2-1.5-4.2-1.8-6C8.9,13.4,9.8,10.1,12,7c2.8-3.8,7.2-6,11.9-6c1.1,0,2.2,0.1,3.3,0.4C33,2.6,37.4,7.1,38.5,12.8   c0.4,1.9,0.2,3.9-0.5,6.2c-1.1,3.7-2.7,7.5-5,12.1c-1.7,3.4-3.6,6.9-5.4,10.2c-0.8,1.4-1.5,2.8-2.3,4.2c-0.1,0.2-0.2,0.3-0.3,0.5   l-0.2,0.3C24.6,46.7,24.3,46.9,24,46.9z M24,2.9c-4.1,0-8,1.9-10.4,5.2c-2,2.7-2.7,5.5-2.2,8.3c0.3,1.7,0.9,3.6,1.7,5.7   c2.8,7.1,6.3,13.7,10.1,20.5c0.3,0.5,0.5,0.9,0.8,1.4c0.6-1.2,1.2-2.3,1.9-3.5c1.8-3.3,3.6-6.8,5.399-10.2   c2.3-4.5,3.8-8.3,4.9-11.8c0.6-2,0.8-3.7,0.5-5.3C35.8,8.3,32,4.3,27,3.2C25.9,3,25,2.9,24,2.9z M24,20.5L24,20.5   c-3.1,0-5.6-2.4-5.6-5.3c0-1.5,0.6-2.8,1.6-3.9c1-1,2.4-1.5,3.9-1.5l0,0c3,0,5.5,2.4,5.5,5.4c0,1.4-0.601,2.7-1.601,3.7   C26.9,19.9,25.5,20.5,24,20.5z M24,11.7c-1,0-1.9,0.4-2.6,1c-0.7,0.6-1,1.5-1,2.5c0,1.9,1.6,3.4,3.7,3.4c1,0,1.9-0.4,2.6-1.1   c0.6-0.6,1-1.5,1-2.3C27.6,13.3,26,11.7,24,11.7z"/></g></svg>
