<svg xmlns="http://www.w3.org/2000/svg" xmlns:xlink="http://www.w3.org/1999/xlink" version="1.1" x="0px" y="0px" viewBox="0 0 100 125" enable-background="new 0 0 100 100" xml:space="preserve"><g><path d="M99.769,59.089l-0.245-1.211v-0.01l-1.723-8.521c0-0.009,0-0.018-0.009-0.026l-5.468-27.035   c-1.085-5.376-5.858-9.275-11.345-9.275c-0.766,0-1.53,0.073-2.287,0.228L9.279,27.271c-6.251,1.266-10.315,7.381-9.048,13.631   l5.467,27.062l1.968,9.75c1.093,5.366,5.868,9.275,11.353,9.275c0.766,0,1.531-0.082,2.287-0.236L90.721,72.72   C96.971,71.454,101.034,65.34,99.769,59.089z M19.019,84.711c-4.409,0-8.245-3.134-9.12-7.453l-0.018-0.109l2.003-0.41   c0.021,0,0.047-0.009,0.064-0.009c0.073-0.009,0.137-0.018,0.201-0.036l8.355-1.695c0.018,0,0.045-0.009,0.064-0.009l0.199-0.037   c0.02-0.009,0.037-0.019,0.055-0.019l8.402-1.694c0.053-0.009,0.108-0.027,0.163-0.036l8.364-1.695   c0.019,0,0.047-0.009,0.064-0.009c0.073-0.009,0.137-0.018,0.201-0.036l8.345-1.695c0.02,0,0.046-0.009,0.064-0.009   c0.072-0.009,0.137-0.018,0.2-0.036l8.465-1.714c0.055-0.009,0.11-0.026,0.165-0.036l8.446-1.704   c0.064-0.009,0.117-0.018,0.173-0.035l8.355-1.696c0.009,0,0.018,0,0.026-0.009c0.037,0,0.073,0,0.11-0.009   c0.047-0.009,0.091-0.019,0.137-0.027l8.446-1.714c0.056-0.009,0.109-0.026,0.164-0.035l8.455-1.705   c0.056-0.009,0.11-0.026,0.166-0.035l7.78-1.568l0.018,0.101c1.013,5.03-2.24,9.941-7.261,10.953L20.851,84.52   C20.25,84.647,19.629,84.711,19.019,84.711z M80.979,15.289c4.41,0,8.247,3.134,9.111,7.444l5.248,25.949l-2.104,0.429   c-0.055,0.009-0.11,0.027-0.163,0.037l-8.457,1.703c-0.056,0.009-0.108,0.027-0.164,0.036l-8.455,1.704   c-0.055,0.009-0.11,0.027-0.164,0.037l-8.456,1.713c-0.056,0.009-0.109,0.018-0.164,0.036l-8.455,1.704   c-0.056,0.009-0.11,0.026-0.166,0.036l-8.455,1.704c-0.055,0.009-0.108,0.027-0.163,0.037l-8.446,1.703   c-0.064,0.01-0.119,0.019-0.175,0.036l-8.455,1.714c-0.055,0.009-0.108,0.026-0.164,0.035l-8.455,1.705   c-0.055,0.009-0.11,0.026-0.165,0.036l-8.455,1.704c-0.056,0.009-0.108,0.027-0.164,0.036l-7.791,1.567L2.463,40.455   c-1.02-5.021,2.242-9.932,7.271-10.952l69.414-14.032C79.749,15.352,80.369,15.289,80.979,15.289z M8.157,68.629l5.786-1.166   l-2.933,7.135l-1.577,0.318L8.157,68.629z M82.646,60.118l2.943-7.144l5.932-1.194l-2.943,7.135L82.646,60.118z M74.028,61.858   l2.943-7.135l5.932-1.202l-2.935,7.134H79.96L74.028,61.858z M65.416,63.6l2.935-7.135h0.009l5.923-1.203l-2.943,7.144L65.416,63.6   z M56.797,65.34l2.934-7.135l5.933-1.203l-2.943,7.144L56.797,65.34z M48.168,67.089l2.943-7.144l5.94-1.203l-2.943,7.144   L48.168,67.089z M39.558,68.829l2.943-7.143l5.923-1.194l-2.935,7.135H45.48L39.558,68.829z M30.938,70.57l2.943-7.144l5.923-1.194   l-2.935,7.135H36.86L30.938,70.57z M22.318,72.311l2.933-7.135h0.011l5.932-1.203l-2.943,7.144L22.318,72.311z M13.688,74.06   l2.953-7.144l5.932-1.202l-2.944,7.143L13.688,74.06z M94.22,51.234l1.575-0.318l1.267,6.287l-5.785,1.166L94.22,51.234z"/><path d="M7.202,40.337c0.52,2.551,2.787,4.41,5.394,4.41c0.365,0,0.729-0.037,1.093-0.11c1.449-0.291,2.689-1.129,3.499-2.351   c0.812-1.229,1.104-2.696,0.812-4.136c-0.52-2.562-2.789-4.419-5.394-4.419c-0.365,0-0.739,0.044-1.095,0.117   C8.531,34.45,6.601,37.357,7.202,40.337z M12.605,36.009c1.53,0,2.851,1.093,3.16,2.597c0.166,0.839,0,1.703-0.474,2.424   c-0.482,0.72-1.212,1.202-2.05,1.376c-1.731,0.346-3.462-0.812-3.809-2.523c-0.355-1.74,0.783-3.454,2.523-3.801   C12.176,36.036,12.396,36.009,12.605,36.009z"/></g></svg>
