<svg xmlns="http://www.w3.org/2000/svg" xmlns:xlink="http://www.w3.org/1999/xlink" version="1.1" x="0px" y="0px" viewBox="137.2 137.6 100 125" enable-background="new 137.2 137.6 100 100" xml:space="preserve"><g><rect x="186.2" y="141.9" width="2" height="17.7"/></g><g><rect x="185.7" y="159.5" width="3" height="28.1"/></g><g><rect x="192" y="145.7" transform="matrix(0.7071 0.7071 -0.7071 0.7071 165.2693 -91.3957)" width="2" height="16.2"/></g><g><rect x="173.4" y="152.8" transform="matrix(0.7071 0.7071 -0.7071 0.7071 161.9209 -83.2886)" width="16.2" height="2"/></g><g><rect x="146.5" y="167.9" transform="matrix(0.866 0.5 -0.5 0.866 105.1639 -54.7415)" width="16.5" height="2"/></g><g><rect x="159.9" y="178.8" transform="matrix(0.866 0.5 -0.5 0.866 113.5507 -63.1205)" width="29.3" height="3"/></g><g><rect x="152.7" y="164.8" transform="matrix(0.2588 0.9659 -0.9659 0.2588 279.2756 -32.4621)" width="16.2" height="2"/></g><g><rect x="154.1" y="167.6" transform="matrix(0.2588 0.9659 -0.9659 0.2588 284.622 -19.5617)" width="2" height="16.2"/></g><g><rect x="154.2" y="197.3" transform="matrix(0.4999 0.8661 -0.8661 0.4999 256.1314 -31.379)" width="2" height="17.7"/></g><g><rect x="173.6" y="180.6" transform="matrix(0.5001 0.866 -0.866 0.5001 256.0918 -54.2795)" width="3" height="28.1"/></g><g><rect x="146.9" y="198.6" transform="matrix(0.9659 0.2588 -0.2588 0.9659 56.9416 -33.3316)" width="16.2" height="2"/></g><g><rect x="159.8" y="201.4" transform="matrix(0.9659 0.2588 -0.2588 0.9659 59.7054 -34.4765)" width="2" height="16.2"/></g><g><rect x="186.2" y="215.7" width="2" height="17.7"/></g><g><rect x="185.7" y="187.6" width="3" height="28.1"/></g><g><rect x="180.5" y="213.4" transform="matrix(0.7071 0.7071 -0.7071 0.7071 209.7607 -63.4677)" width="2" height="16.2"/></g><g><rect x="184.9" y="220.5" transform="matrix(0.7071 0.7071 -0.7071 0.7071 213.1191 -71.5756)" width="16.2" height="2"/></g><g><rect x="210.4" y="205.1" transform="matrix(0.866 0.5 -0.5 0.866 132.417 -81.993)" width="17.7" height="2"/></g><g><rect x="185.3" y="193.2" transform="matrix(0.866 0.5 -0.5 0.866 124.0435 -73.6171)" width="28.1" height="3"/></g><g><rect x="205.6" y="208.5" transform="matrix(0.2588 0.9659 -0.9659 0.2588 360.734 -51.0938)" width="16.2" height="2"/></g><g><rect x="218.4" y="191.5" transform="matrix(0.2588 0.9659 -0.9659 0.2588 355.3973 -63.9881)" width="2" height="16.2"/></g><g><rect x="218.6" y="160.6" transform="matrix(0.4999 0.8661 -0.8661 0.4999 256.1351 -105.7429)" width="2" height="16.7"/></g><g><rect x="198.3" y="165.8" transform="matrix(0.5001 0.866 -0.866 0.5001 256.0911 -82.8643)" width="3" height="29.1"/></g><g><rect x="211.3" y="174.7" transform="matrix(0.9659 0.2588 -0.2588 0.9659 52.9372 -50.791)" width="16.2" height="2"/></g><g><rect x="212.7" y="157.6" transform="matrix(0.9659 0.2588 -0.2588 0.9659 50.1799 -49.6514)" width="2" height="16.2"/></g></svg>
