<svg xmlns="http://www.w3.org/2000/svg" xmlns:xlink="http://www.w3.org/1999/xlink" version="1.1" x="0px" y="0px" viewBox="0 0 100 125" enable-background="new 0 0 100 100" xml:space="preserve"><circle fill="#000000" cx="49.328" cy="16.182" r="7.561"/><path fill="#000000" d="M66.984,52.39l-1.239-20.422c-0.116-1.913-1.701-3.405-3.617-3.405h-7.939h-9.721h-7.731  c-1.902,0-3.48,1.471-3.616,3.369l-1.445,20.422c-0.142,1.996,1.363,3.729,3.359,3.87c0.086,0.007,0.174,0.01,0.259,0.01  c1.886,0,3.477-1.459,3.611-3.369l1.207-17.053h0.731v19.89V87.71c0,2,1.625,3.622,3.625,3.622c2.001,0,3.625-1.622,3.625-3.622  V59.325h2.47V87.71c0,2,1.623,3.622,3.625,3.622c2.003,0,3.624-1.622,3.624-3.622V55.701v-19.89h0.904l1.033,17.017  c0.121,1.997,1.844,3.519,3.836,3.397C65.584,56.105,67.106,54.389,66.984,52.39z"/></svg>
