<svg xmlns="http://www.w3.org/2000/svg" xmlns:xlink="http://www.w3.org/1999/xlink" version="1.1" x="0px" y="0px" viewBox="0 0 100 125" enable-background="new 0 0 100 100" xml:space="preserve"><g><path d="M73.457,33.333c0-6.818-5.527-12.346-12.346-12.346H38.889c-6.818,0-12.346,5.527-12.346,12.346v24.692   c0,2.727,2.211,4.938,4.938,4.938s4.938-2.211,4.938-4.938V34.568c0-0.681,0.552-1.234,1.233-1.234   c0.684,0,1.235,0.553,1.235,1.234v23.458v37.037c0,2.728,2.211,4.938,4.938,4.938c2.727,0,4.938-2.211,4.938-4.938V59.26   c0-0.682,0.552-1.234,1.233-1.234c0.684,0,1.234,0.554,1.234,1.234v35.803c0,2.728,2.211,4.938,4.938,4.938   s4.938-2.211,4.938-4.938V58.025V34.568c0-0.681,0.552-1.234,1.232-1.234c0.684,0,1.235,0.553,1.235,1.234v23.458   c0,2.728,2.211,4.938,4.938,4.938c2.727,0,4.938-2.211,4.938-4.938V33.333H73.457z"/></g><circle cx="50" cy="9.259" r="9.259"/><text x="0" y="115" fill="#000000" font-size="5px" font-weight="bold" font-family="'Helvetica Neue', Helvetica, Arial-Unicode, Arial, Sans-serif">Created by Alex Berkowitz</text><text x="0" y="120" fill="#000000" font-size="5px" font-weight="bold" font-family="'Helvetica Neue', Helvetica, Arial-Unicode, Arial, Sans-serif">from the Noun Project</text></svg>